<svg width="47" height="46" viewBox="0 0 47 46" fill="none" xmlns="http://www.w3.org/2000/svg">
<path d="M23.5 43.3043C35.2894 43.3043 45 34.1409 45 22.6522C45 11.1634 35.2894 2 23.5 2C11.7106 2 2 11.1634 2 22.6522C2 34.1409 11.7106 43.3043 23.5 43.3043Z" fill="black" stroke="white" stroke-width="4"/>
<path d="M31.105 30H28.015C27.765 30 27.565 29.935 27.415 29.805C27.275 29.675 27.16 29.53 27.07 29.37L23.545 23.715C23.455 24.055 23.335 24.35 23.185 24.6L19.99 29.37C19.88 29.53 19.755 29.675 19.615 29.805C19.485 29.935 19.31 30 19.09 30H16.21L21.505 22.11L16.42 14.7H19.51C19.76 14.7 19.94 14.74 20.05 14.82C20.17 14.89 20.275 15 20.365 15.15L23.83 20.55C23.92 20.22 24.06 19.905 24.25 19.605L27.175 15.21C27.375 14.87 27.63 14.7 27.94 14.7H30.895L25.81 21.975L31.105 30Z" fill="white"/>
</svg>
